Coordinates
version=1
nRows=14
nColumns=40
inDegrees=yes

Units are S.I. units (second, meters, Newtons, ...)
If the header above contains a line with 'inDegrees', this indicates whether rotational values are in degrees (yes) or radians (no).

endheader
time	pelvis_tilt	pelvis_list	pelvis_rotation	pelvis_tx	pelvis_ty	pelvis_tz	hip_flexion_r	hip_adduction_r	hip_rotation_r	knee_angle_r	knee_angle_r_beta	ankle_angle_r	subtalar_angle_r	mtp_angle_r	hip_flexion_l	hip_adduction_l	hip_rotation_l	knee_angle_l	knee_angle_l_beta	ankle_angle_l	subtalar_angle_l	mtp_angle_l	lumbar_extension	lumbar_bending	lumbar_rotation	arm_flex_r	arm_add_r	arm_rot_r	elbow_flex_r	pro_sup_r	wrist_flex_r	wrist_dev_r	arm_flex_l	arm_add_l	arm_rot_l	elbow_flex_l	pro_sup_l	wrist_flex_l	wrist_dev_l
      3.32500000	     -0.46993521	     -3.96652821	     -2.13938468	     -0.35851568	      0.96543756	     -0.99310444	     49.36363814	     -1.45824110	      2.09206940	     27.58401677	      0.48143191	      6.53672017	      0.00000000	      0.00000000	     32.04597254	     -5.73470681	     -7.03621124	     55.22693269	      0.96389181	     10.79468106	      0.00000000	      0.00000000	    -13.76940507	     -2.34456714	     -4.26624999	     89.88463520	     -2.47991859	     47.02673164	     43.92288438	     80.00758394	      0.00000000	      0.00000000	     89.93777901	    -14.70421142	     48.21806363	     49.34364885	     87.21249571	      0.00000000	      0.00000000
      3.33000000	     -0.42486832	     -3.92434262	     -2.09668635	     -0.35880086	      0.96452275	     -0.99314839	     49.49103063	     -1.51911164	      2.16381825	     27.66351839	      0.48281948	      6.64107325	      0.00000000	      0.00000000	     32.13853623	     -5.69678754	     -7.04309195	     55.45830464	      0.96793001	     10.88075748	      0.00000000	      0.00000000	    -13.83878182	     -2.40027974	     -4.31792099	     89.88508761	     -2.47229956	     46.58310823	     43.94387460	     83.58602541	      0.00000000	      0.00000000	     89.93803109	    -14.72229245	     48.25860354	     49.39992831	     86.92801997	      0.00000000	      0.00000000
      3.33500000	     -0.50839532	     -3.86276662	     -2.06468241	     -0.35909744	      0.96341610	     -0.99326562	     49.78591460	     -1.61465453	      2.12498473	     27.77239022	      0.48471965	      6.64844498	      0.00000000	      0.00000000	     32.36835148	     -5.61816167	     -7.02361410	     55.68445133	      0.97187702	     10.95258318	      0.00000000	      0.00000000	    -13.78038674	     -2.46961349	     -4.40639395	     89.88593789	     -2.47106614	     46.66263950	     44.08083611	     81.57377453	      0.00000000	      0.00000000	     89.93794887	    -14.73268443	     48.06604865	     49.47172407	     87.03561613	      0.00000000	      0.00000000
      3.34000000	     -0.45253316	     -3.93052697	     -1.99067432	     -0.35934946	      0.96248912	     -0.99332792	     49.87386524	     -1.61519509	      2.15956603	     27.87018530	      0.48642650	      6.58789983	      0.00000000	      0.00000000	     32.47103889	     -5.66756802	     -6.94599108	     55.96470109	      0.97676830	     11.10170767	      0.00000000	      0.00000000	    -13.87139973	     -2.38716383	     -4.45908691	     89.88566587	     -2.44108083	     46.37827090	     44.01220179	     83.39264442	      0.00000000	      0.00000000	     89.93819857	    -14.75090836	     48.10408763	     49.52397079	     86.94826171	      0.00000000	      0.00000000
      3.34500000	     -0.45268687	     -3.87867927	     -1.96306665	     -0.35973254	      0.96153735	     -0.99329617	     50.07852425	     -1.68739633	      2.09351445	     27.96586941	      0.48809650	      6.67729354	      0.00000000	      0.00000000	     32.61676956	     -5.63488593	     -6.97452401	     56.20129489	      0.98089764	     11.16757230	      0.00000000	      0.00000000	    -13.90538511	     -2.47423733	     -4.48676287	     89.88655443	     -2.47288771	     46.48160906	     43.95673972	     83.65114015	      0.00000000	      0.00000000	     89.93829631	    -14.70138110	     48.04014193	     49.53818819	     86.91086412	      0.00000000	      0.00000000
      3.35000000	     -0.54270335	     -3.90507304	     -1.88585976	     -0.36008046	      0.96046432	     -0.99336483	     50.35361077	     -1.72903893	      1.95805844	     28.08873767	      0.49024095	      6.68738625	      0.00000000	      0.00000000	     32.88908880	     -5.63510322	     -6.87967218	     56.47861558	      0.98573780	     11.25525056	      0.00000000	      0.00000000	    -13.83073403	     -2.44437286	     -4.54132742	     89.88697944	     -2.59852835	     46.55041939	     44.20627206	     82.57374282	      0.00000000	      0.00000000	     89.93842050	    -14.62650483	     47.94207977	     49.48011408	     87.02629307	      0.00000000	      0.00000000
      3.35500000	     -0.42891820	     -3.91168207	     -1.81378762	     -0.36036015	      0.95971626	     -0.99344032	     50.35901801	     -1.77636419	      1.93755051	     28.08099025	      0.49010574	      6.72684882	      0.00000000	      0.00000000	     32.90177902	     -5.60894877	     -6.81041049	     56.68851278	      0.98940120	     11.36551337	      0.00000000	      0.00000000	    -13.99941059	     -2.43234988	     -4.66376502	     89.88747774	     -2.43507015	     46.13936787	     44.05890047	     83.52897616	      0.00000000	      0.00000000	     89.93839557	    -14.72769950	     47.94216736	     49.58307457	     86.95951430	      0.00000000	      0.00000000
      3.36000000	     -0.45046747	     -3.88183663	     -1.74442276	     -0.36077874	      0.95862843	     -0.99343053	     50.60154439	     -1.84455036	      1.96945348	     28.26372108	      0.49329499	      6.78053608	      0.00000000	      0.00000000	     33.09516538	     -5.55228170	     -6.73787258	     56.94345859	      0.99385084	     11.43897320	      0.00000000	      0.00000000	    -13.99940057	     -2.47402545	     -4.70340830	     89.88814072	     -2.50237290	     46.35628759	     44.15334114	     81.12609841	      0.00000000	      0.00000000	     89.93856093	    -14.61497335	     47.80156040	     49.50318014	     86.99726121	      0.00000000	      0.00000000
      3.36500000	     -0.45153240	     -3.86922466	     -1.73783496	     -0.36103733	      0.95767998	     -0.99346179	     50.78738885	     -1.87713663	      1.84690632	     28.37786509	      0.49528718	      6.71955126	      0.00000000	      0.00000000	     33.22583987	     -5.53787628	     -6.72422128	     57.17500780	      0.99789214	     11.55377000	      0.00000000	      0.00000000	    -14.02548885	     -2.51039885	     -4.72423416	     89.88875485	     -2.55435492	     46.51929122	     44.25987258	     78.61490838	      0.00000000	      0.00000000	     89.93855438	    -14.52843240	     47.65040831	     49.41083495	     87.20582580	      0.00000000	      0.00000000
      3.37000000	     -0.44031715	     -3.87292567	     -1.69697419	     -0.36135523	      0.95678125	     -0.99345333	     50.92460019	     -1.89228939	      1.90386079	     28.42297677	      0.49607453	      6.79964198	      0.00000000	      0.00000000	     33.36211386	     -5.53371756	     -6.68638442	     57.41307677	      1.00204722	     11.66783194	      0.00000000	      0.00000000	    -14.06540788	     -2.51410537	     -4.77848762	     89.88804728	     -2.49701419	     45.98390328	     44.17715417	     83.49955317	      0.00000000	      0.00000000	     89.93860650	    -14.57564580	     47.70291942	     49.48926236	     86.92844284	      0.00000000	      0.00000000
      3.37500000	     -0.49710818	     -3.82460114	     -1.63600130	     -0.36179768	      0.95570092	     -0.99344098	     51.12505068	     -1.96589239	      1.91716602	     28.41244872	      0.49589078	      6.91897524	      0.00000000	      0.00000000	     33.58700926	     -5.44183027	     -6.58389854	     57.64297528	      1.00605971	     11.74122349	      0.00000000	      0.00000000	    -14.04620980	     -2.57547580	     -4.84969929	     89.88854614	     -2.51586760	     46.03870703	     44.19645667	     82.63203222	      0.00000000	      0.00000000	     89.93875628	    -14.55179162	     47.58358188	     49.51733981	     87.01379777	      0.00000000	      0.00000000
      3.38000000	     -0.44578361	     -3.86568579	     -1.66906339	     -0.36193629	      0.95484335	     -0.99341770	     51.23867727	     -1.90853630	      1.90291486	     28.54610149	      0.49822346	      6.90830943	      0.00000000	      0.00000000	     33.64420885	     -5.52066371	     -6.62293505	     57.87796732	      1.01016109	     11.90177366	      0.00000000	      0.00000000	    -14.12485493	     -2.55483165	     -4.82239997	     89.88957234	     -2.48337801	     46.03682871	     44.18570713	     80.99885356	      0.00000000	      0.00000000	     89.93859661	    -14.61114774	     47.62958502	     49.58783316	     87.10357474	      0.00000000	      0.00000000
      3.38500000	     -0.45038557	     -3.90670399	     -1.62889227	     -0.36229644	      0.95391709	     -0.99342958	     51.39269993	     -1.89593011	      1.87109223	     28.59177702	      0.49902065	      6.97147738	      0.00000000	      0.00000000	     33.79108622	     -5.52464358	     -6.51349314	     58.09765570	      1.01399538	     12.03950084	      0.00000000	      0.00000000	    -14.15029518	     -2.51337166	     -4.84536610	     89.88998625	     -2.48487427	     45.87007815	     44.13668743	     83.46037225	      0.00000000	      0.00000000	     89.93867299	    -14.54007024	     47.53256314	     49.52114375	     86.92337389	      0.00000000	      0.00000000
      3.39000000	     -0.50147210	     -3.89738071	     -1.63845455	     -0.36255285	      0.95282069	     -0.99325287	     51.64835843	     -1.88368749	      1.89588846	     28.78037138	      0.50231224	      6.99095757	      0.00000000	      0.00000000	     33.99036390	     -5.54158384	     -6.51155908	     58.36006429	      1.01857527	     12.16102409	      0.00000000	      0.00000000	    -14.11262450	     -2.57104917	     -4.81183697	     89.88972985	     -2.59287937	     46.03232830	     44.30390763	     81.05314169	      0.00000000	      0.00000000	     89.93882576	    -14.46011355	     47.46024462	     49.46490989	     87.11232295	      0.00000000	      0.00000000
